REM DIRINDEX 1\2,1\3,1\4
REM DIRNAME cjc153,folder01,folder02,folder03
TITLE ""
FILE "Track24.mp3" MP3
  TRACK 01 AUDIO
    TITLE "0:"
    INDEX 01 00:00:00
  TRACK 02 AUDIO
    TITLE "4:cjc153_1482"
    INDEX 01 00:00:07
  TRACK 03 AUDIO
    TITLE "0:"
    INDEX 01 00:02:08
  TRACK 04 AUDIO
    TITLE "2:cjc153_1483"
    INDEX 01 00:02:67
  TRACK 05 AUDIO
    TITLE "0:"
    INDEX 01 00:03:70
  TRACK 06 AUDIO
    TITLE "3:cjc153_1484"
    INDEX 01 00:04:27
  TRACK 07 AUDIO
    TITLE "0:"
    INDEX 01 00:05:28
  TRACK 08 AUDIO
    TITLE "2:cjc153_1485"
    INDEX 01 00:05:73
  TRACK 09 AUDIO
    TITLE "0:"
    INDEX 01 00:07:02
  TRACK 10 AUDIO
    TITLE "3:cjc153_1486"
    INDEX 01 00:07:35
  TRACK 11 AUDIO
    TITLE "0:"
    INDEX 01 00:08:46
  TRACK 12 AUDIO
    TITLE "2:cjc153_1487"
    INDEX 01 00:09:20
  TRACK 13 AUDIO
    TITLE "0:"
    INDEX 01 00:10:21
  TRACK 14 AUDIO
    TITLE "3:cjc153_1488"
    INDEX 01 00:10:53
  TRACK 15 AUDIO
    TITLE "0:"
    INDEX 01 00:11:58
  TRACK 16 AUDIO
    TITLE "2:cjc153_1489"
    INDEX 01 00:12:22
  TRACK 17 AUDIO
    TITLE "0:"
    INDEX 01 00:13:16
  TRACK 18 AUDIO
    TITLE "3:cjc153_1490"
    INDEX 01 00:13:49
  TRACK 19 AUDIO
    TITLE "0:"
    INDEX 01 00:14:54
  TRACK 20 AUDIO
    TITLE "2:cjc153_1491"
    INDEX 01 00:15:25
  TRACK 21 AUDIO
    TITLE "0:"
    INDEX 01 00:16:32
  TRACK 22 AUDIO
    TITLE "3:cjc153_1492"
    INDEX 01 00:16:61
  TRACK 23 AUDIO
    TITLE "0:"
    INDEX 01 00:17:72
  TRACK 24 AUDIO
    TITLE "2:cjc153_1493"
    INDEX 01 00:18:41
  TRACK 25 AUDIO
    TITLE "0:"
    INDEX 01 00:19:38
  TRACK 26 AUDIO
    TITLE "3:cjc153_1494"
    INDEX 01 00:19:69
  TRACK 27 AUDIO
    TITLE "0:"
    INDEX 01 00:21:02
  TRACK 28 AUDIO
    TITLE "2:cjc153_1495"
    INDEX 01 00:21:45
  TRACK 29 AUDIO
    TITLE "0:"
    INDEX 01 00:22:58
  TRACK 30 AUDIO
    TITLE "3:cjc153_1496"
    INDEX 01 00:23:14
  TRACK 31 AUDIO
    TITLE "0:"
    INDEX 01 00:24:31
  TRACK 32 AUDIO
    TITLE "2:cjc153_1497"
    INDEX 01 00:25:01
  TRACK 33 AUDIO
    TITLE "0:"
    INDEX 01 00:26:07
  TRACK 34 AUDIO
    TITLE "3:cjc153_1498"
    INDEX 01 00:26:42
  TRACK 35 AUDIO
    TITLE "0:"
    INDEX 01 00:27:47
  TRACK 36 AUDIO
    TITLE "2:cjc153_1499"
    INDEX 01 00:28:17
  TRACK 37 AUDIO
    TITLE "0:"
    INDEX 01 00:29:23
  TRACK 38 AUDIO
    TITLE "3:cjc153_1500"
    INDEX 01 00:29:56
  TRACK 39 AUDIO
    TITLE "0:"
    INDEX 01 00:30:67
  TRACK 40 AUDIO
    TITLE "2:cjc153_1501"
    INDEX 01 00:31:37
  TRACK 41 AUDIO
    TITLE "0:"
    INDEX 01 00:32:41
  TRACK 42 AUDIO
    TITLE "3:cjc153_1502"
    INDEX 01 00:32:72
  TRACK 43 AUDIO
    TITLE "0:"
    INDEX 01 00:34:04
  TRACK 44 AUDIO
    TITLE "2:cjc153_1503"
    INDEX 01 00:34:49
  TRACK 45 AUDIO
    TITLE "0:"
    INDEX 01 00:36:07
  TRACK 46 AUDIO
    TITLE "3:cjc153_1504"
    INDEX 01 00:36:36
  TRACK 47 AUDIO
    TITLE "0:"
    INDEX 01 00:37:73
  TRACK 48 AUDIO
    TITLE "2:cjc153_1505"
    INDEX 01 00:38:41
  TRACK 49 AUDIO
    TITLE "0:"
    INDEX 01 00:39:47
  TRACK 50 AUDIO
    TITLE "3:cjc153_1506"
    INDEX 01 00:40:05
  TRACK 51 AUDIO
    TITLE "0:"
    INDEX 01 00:41:16
  TRACK 52 AUDIO
    TITLE "2:cjc153_1507"
    INDEX 01 00:41:59
  TRACK 53 AUDIO
    TITLE "0:"
    INDEX 01 00:43:01
  TRACK 54 AUDIO
    TITLE "3:cjc153_1508"
    INDEX 01 00:43:33
  TRACK 55 AUDIO
    TITLE "0:"
    INDEX 01 00:44:58
  TRACK 56 AUDIO
    TITLE "2:cjc153_1509"
    INDEX 01 00:45:28
  TRACK 57 AUDIO
    TITLE "0:"
    INDEX 01 00:46:37
  TRACK 58 AUDIO
    TITLE "3:cjc153_1510"
    INDEX 01 00:46:70
  TRACK 59 AUDIO
    TITLE "0:"
    INDEX 01 00:48:14
  TRACK 60 AUDIO
    TITLE "2:cjc153_1511"
    INDEX 01 00:48:59
  TRACK 61 AUDIO
    TITLE "0:"
    INDEX 01 00:49:74
  TRACK 62 AUDIO
    TITLE "3:cjc153_1512"
    INDEX 01 00:50:33
  TRACK 63 AUDIO
    TITLE "0:"
    INDEX 01 00:51:52
  TRACK 64 AUDIO
    TITLE "2:cjc153_1513"
    INDEX 01 00:52:20
  TRACK 65 AUDIO
    TITLE "0:"
    INDEX 01 00:53:25
  TRACK 66 AUDIO
    TITLE "3:cjc153_1514"
    INDEX 01 00:53:57
  TRACK 67 AUDIO
    TITLE "0:"
    INDEX 01 00:54:70
  TRACK 68 AUDIO
    TITLE "2:cjc153_1515"
    INDEX 01 00:55:40
  TRACK 69 AUDIO
    TITLE "0:"
    INDEX 01 00:56:43
  TRACK 70 AUDIO
    TITLE "3:cjc153_1516"
    INDEX 01 00:57:01
  TRACK 71 AUDIO
    TITLE "0:"
    INDEX 01 00:58:13
  TRACK 72 AUDIO
    TITLE "2:cjc153_1517"
    INDEX 01 00:58:60
  TRACK 73 AUDIO
    TITLE "0:"
    INDEX 01 00:59:55
  TRACK 74 AUDIO
    TITLE "3:cjc153_1518"
    INDEX 01 01:00:13
  TRACK 75 AUDIO
    TITLE "0:"
    INDEX 01 01:00:70
  TRACK 76 AUDIO
    TITLE "2:cjc153_1519"
    INDEX 01 01:01:60
  TRACK 77 AUDIO
    TITLE "0:"
    INDEX 01 01:02:73
  TRACK 78 AUDIO
    TITLE "3:cjc153_1520"
    INDEX 01 01:03:31
  TRACK 79 AUDIO
    TITLE "0:"
    INDEX 01 01:04:56
  TRACK 80 AUDIO
    TITLE "2:cjc153_1521"
    INDEX 01 01:05:24
  TRACK 81 AUDIO
    TITLE "0:"
    INDEX 01 01:06:28
  TRACK 82 AUDIO
    TITLE "3:cjc153_1522"
    INDEX 01 01:06:59
  TRACK 83 AUDIO
    TITLE "0:"
    INDEX 01 01:07:70
  TRACK 84 AUDIO
    TITLE "2:cjc153_1523"
    INDEX 01 01:08:40
  TRACK 85 AUDIO
    TITLE "0:"
    INDEX 01 01:09:46
  TRACK 86 AUDIO
    TITLE "3:cjc153_1524"
    INDEX 01 01:10:02
  TRACK 87 AUDIO
    TITLE "0:"
    INDEX 01 01:11:11
  TRACK 88 AUDIO
    TITLE "2:cjc153_1525"
    INDEX 01 01:11:56
  TRACK 89 AUDIO
    TITLE "0:"
    INDEX 01 01:12:58
  TRACK 90 AUDIO
    TITLE "3:cjc153_1526"
    INDEX 01 01:13:14
  TRACK 91 AUDIO
    TITLE "0:"
    INDEX 01 01:14:19
  TRACK 92 AUDIO
    TITLE "2:cjc153_1527"
    INDEX 01 01:14:65
  TRACK 93 AUDIO
    TITLE "0:"
    INDEX 01 01:15:64
  TRACK 94 AUDIO
    TITLE "3:cjc153_1528"
    INDEX 01 01:16:24
  TRACK 95 AUDIO
    TITLE "0:"
    INDEX 01 01:17:33
  TRACK 96 AUDIO
    TITLE "2:cjc153_1529"
    INDEX 01 01:18:02
  TRACK 97 AUDIO
    TITLE "0:"
    INDEX 01 01:19:05
  TRACK 98 AUDIO
    TITLE "3:cjc153_1530"
    INDEX 01 01:19:36
  TRACK 99 AUDIO
    TITLE "0:"
    INDEX 01 01:20:51
